<svg xmlns="http://www.w3.org/2000/svg" xmlns:xlink="http://www.w3.org/1999/xlink" width="1024" zoomAndPan="magnify" viewBox="0 0 768 767.999994" height="1024" preserveAspectRatio="xMidYMid meet" version="1.0"><path fill="#df2e24" d="M 72.492188 91.449219 L 96.65625 91.449219 L 96.65625 67.285156 L 72.492188 67.285156 L 72.492188 91.449219 " fill-opacity="1" fill-rule="nonzero"/><path fill="#df2e24" d="M 120.820312 91.449219 L 144.984375 91.449219 L 144.984375 67.285156 L 120.820312 67.285156 L 120.820312 91.449219 " fill-opacity="1" fill-rule="nonzero"/><path fill="#df2e24" d="M 169.148438 91.449219 L 193.3125 91.449219 L 193.3125 67.285156 L 169.148438 67.285156 L 169.148438 91.449219 " fill-opacity="1" fill-rule="nonzero"/><path fill="#df2e24" d="M 652.429688 719.714844 L 652.429688 272.679688 C 652.429688 269.464844 651.160156 266.394531 648.890625 264.136719 L 552.234375 167.480469 C 549.972656 165.207031 546.90625 163.941406 543.691406 163.941406 L 132.902344 163.941406 C 126.246094 163.941406 120.820312 169.363281 120.820312 176.023438 L 120.820312 719.714844 L 48.328125 719.714844 L 48.328125 139.777344 L 724.921875 139.777344 L 724.921875 719.714844 Z M 555.773438 205.1875 L 611.179688 260.597656 L 555.773438 260.597656 Z M 144.984375 719.714844 L 144.984375 188.105469 L 531.609375 188.105469 L 531.609375 272.679688 C 531.609375 279.335938 537.035156 284.761719 543.691406 284.761719 L 628.265625 284.761719 L 628.265625 719.714844 Z M 48.328125 43.121094 L 217.476562 43.121094 L 217.476562 115.613281 L 48.328125 115.613281 Z M 724.921875 115.613281 L 241.640625 115.613281 L 241.640625 43.121094 L 724.921875 43.121094 Z M 737.003906 18.957031 L 36.246094 18.957031 C 29.589844 18.957031 24.164062 24.382812 24.164062 31.039062 L 24.164062 731.796875 C 24.164062 738.453125 29.589844 743.878906 36.246094 743.878906 L 737.003906 743.878906 C 743.660156 743.878906 749.085938 738.453125 749.085938 731.796875 L 749.085938 31.039062 C 749.085938 24.382812 743.660156 18.957031 737.003906 18.957031 " fill-opacity="1" fill-rule="nonzero"/><path fill="#df2e24" d="M 386.625 236.433594 C 453.269531 236.433594 507.445312 290.609375 507.445312 357.253906 C 507.445312 423.898438 453.269531 478.074219 386.625 478.074219 C 319.980469 478.074219 265.804688 423.898438 265.804688 357.253906 C 265.804688 290.609375 319.980469 236.433594 386.625 236.433594 Z M 386.625 502.238281 C 466.570312 502.238281 531.609375 437.199219 531.609375 357.253906 C 531.609375 277.304688 466.570312 212.269531 386.625 212.269531 C 306.679688 212.269531 241.640625 277.304688 241.640625 357.253906 C 241.640625 437.199219 306.679688 502.238281 386.625 502.238281 " fill-opacity="1" fill-rule="nonzero"/><path fill="#df2e24" d="M 322.675781 365.792969 L 338.296875 350.171875 L 353.917969 365.792969 L 371.003906 348.710938 L 355.378906 333.089844 L 371.003906 317.464844 L 353.917969 300.382812 L 338.296875 316.003906 L 322.675781 300.382812 L 305.589844 317.464844 L 321.210938 333.089844 L 305.589844 348.710938 L 322.675781 365.792969 " fill-opacity="1" fill-rule="nonzero"/><path fill="#df2e24" d="M 419.332031 365.792969 L 434.953125 350.171875 L 450.574219 365.792969 L 467.660156 348.710938 L 452.039062 333.089844 L 467.660156 317.464844 L 450.574219 300.382812 L 434.953125 316.003906 L 419.332031 300.382812 L 402.246094 317.464844 L 417.867188 333.089844 L 402.246094 348.710938 L 419.332031 365.792969 " fill-opacity="1" fill-rule="nonzero"/><path fill="#df2e24" d="M 314.75 425.925781 L 337.679688 433.5625 C 337.777344 433.285156 347.453125 405.582031 386.625 405.582031 C 425.140625 405.582031 435.195312 432.523438 435.570312 433.5625 L 458.5 425.925781 C 457.886719 424.078125 443.023438 381.417969 386.625 381.417969 C 330.226562 381.417969 315.363281 424.078125 314.75 425.925781 " fill-opacity="1" fill-rule="nonzero"/><path fill="#df2e24" d="M 265.804688 623.058594 L 231.683594 623.058594 L 265.804688 583.222656 Z M 289.96875 550.566406 C 289.96875 545.515625 286.804688 540.984375 282.089844 539.230469 C 277.320312 537.492188 271.992188 538.859375 268.730469 542.6875 L 196.238281 627.261719 C 193.167969 630.851562 192.464844 635.886719 194.398438 640.191406 C 196.382812 644.480469 200.671875 647.222656 205.394531 647.222656 L 265.804688 647.222656 L 265.804688 683.46875 L 289.96875 683.46875 L 289.96875 647.222656 L 314.132812 647.222656 L 314.132812 623.058594 L 289.96875 623.058594 L 289.96875 550.566406 " fill-opacity="1" fill-rule="nonzero"/><path fill="#df2e24" d="M 531.609375 623.058594 L 497.488281 623.058594 L 531.609375 583.222656 Z M 555.773438 550.566406 C 555.773438 545.515625 552.609375 540.984375 547.894531 539.230469 C 543.125 537.492188 537.796875 538.859375 534.535156 542.6875 L 462.042969 627.261719 C 458.972656 630.851562 458.269531 635.886719 460.203125 640.191406 C 462.1875 644.480469 466.476562 647.222656 471.199219 647.222656 L 531.609375 647.222656 L 531.609375 683.46875 L 555.773438 683.46875 L 555.773438 647.222656 L 579.9375 647.222656 L 579.9375 623.058594 L 555.773438 623.058594 L 555.773438 550.566406 " fill-opacity="1" fill-rule="nonzero"/><path fill="#df2e24" d="M 410.789062 647.222656 C 410.789062 653.878906 405.363281 659.304688 398.707031 659.304688 L 374.542969 659.304688 C 367.886719 659.304688 362.460938 653.878906 362.460938 647.222656 L 362.460938 574.730469 C 362.460938 568.070312 367.886719 562.648438 374.542969 562.648438 L 398.707031 562.648438 C 405.363281 562.648438 410.789062 568.070312 410.789062 574.730469 Z M 398.707031 538.484375 L 374.542969 538.484375 C 354.535156 538.484375 338.296875 554.722656 338.296875 574.730469 L 338.296875 647.222656 C 338.296875 667.230469 354.535156 683.46875 374.542969 683.46875 L 398.707031 683.46875 C 418.714844 683.46875 434.953125 667.230469 434.953125 647.222656 L 434.953125 574.730469 C 434.953125 554.722656 418.714844 538.484375 398.707031 538.484375 " fill-opacity="1" fill-rule="nonzero"/><path fill="#df2e24" d="M 241.640625 212.269531 L 181.230469 212.269531 C 174.574219 212.269531 169.148438 217.691406 169.148438 224.351562 L 169.148438 357.253906 L 193.3125 357.253906 L 193.3125 236.433594 L 241.640625 236.433594 L 241.640625 212.269531 " fill-opacity="1" fill-rule="nonzero"/><path fill="#df2e24" d="M 169.148438 405.582031 L 193.3125 405.582031 L 193.3125 381.417969 L 169.148438 381.417969 L 169.148438 405.582031 " fill-opacity="1" fill-rule="nonzero"/></svg>