<svg xmlns="http://www.w3.org/2000/svg" xmlns:xlink="http://www.w3.org/1999/xlink" width="1024" zoomAndPan="magnify" viewBox="0 0 768 767.999994" height="1024" preserveAspectRatio="xMidYMid meet" version="1.0"><defs><clipPath id="67dc906f86"><path d="M 115 46.625 L 632 46.625 L 632 721 L 115 721 Z M 115 46.625 " clip-rule="nonzero"/></clipPath></defs><path fill="#00e6b3" d="M 767.578125 169.800781 C 767.578125 122.25 747.203125 81.5 720.027344 47.519531 C 686.046875 13.570312 645.296875 0 597.742188 0 L 169.800781 0 C 122.285156 0 81.5 20.375 47.554688 47.554688 C 13.570312 81.5 0 122.285156 0 169.800781 L 0 597.742188 C 0 645.296875 20.375 686.046875 47.554688 720.027344 C 81.5 753.972656 122.285156 767.578125 169.835938 767.578125 L 597.777344 767.578125 C 645.332031 767.578125 686.078125 747.203125 720.0625 720.027344 C 754.007812 686.078125 767.613281 645.296875 767.613281 597.742188 L 767.613281 169.800781 Z M 767.578125 169.800781 " fill-opacity="1" fill-rule="nonzero"/><path fill="#ffffff" d="M 194.070312 462.183594 C 200.25 462.183594 205.292969 457.136719 205.292969 450.953125 L 205.292969 158.9375 C 205.292969 152.753906 200.25 147.707031 194.070312 147.707031 C 187.894531 147.707031 182.851562 152.753906 182.851562 158.9375 L 182.851562 450.953125 C 182.851562 457.136719 187.894531 462.183594 194.070312 462.183594 " fill-opacity="1" fill-rule="nonzero"/><g clip-path="url(#67dc906f86)"><path fill="#ffffff" d="M 609.179688 540.804688 L 182.851562 540.804688 C 166.242188 540.804688 150.421875 546.855469 137.976562 558 L 137.976562 125.246094 C 137.976562 94.226562 163.089844 69.089844 194.070312 69.089844 L 609.179688 69.089844 Z M 609.179688 596.960938 L 238.949219 596.960938 C 232.769531 596.960938 227.730469 602.003906 227.730469 608.191406 C 227.730469 614.375 232.769531 619.421875 238.949219 619.421875 L 474.550781 619.421875 L 474.550781 653.117188 L 182.851562 653.117188 C 158.046875 653.117188 137.976562 633.023438 137.976562 608.191406 C 137.976562 596.167969 142.664062 584.9375 150.992188 576.382812 C 159.625 567.960938 170.84375 563.265625 182.851562 563.265625 L 609.179688 563.265625 Z M 609.179688 653.117188 L 564.304688 653.117188 L 564.304688 619.421875 L 609.179688 619.421875 Z M 541.863281 688.257812 L 525.605469 677.464844 C 523.808594 676.234375 521.574219 675.578125 519.425781 675.578125 C 517.277344 675.578125 515.042969 676.234375 513.246094 677.464844 L 496.988281 688.257812 L 496.988281 619.421875 L 541.863281 619.421875 Z M 620.398438 46.625 L 194.070312 46.625 C 150.773438 46.625 115.539062 81.898438 115.539062 125.246094 L 115.539062 608.191406 C 115.539062 645.351562 145.734375 675.578125 182.851562 675.578125 L 474.550781 675.578125 L 474.550781 709.273438 C 474.550781 713.441406 476.785156 717.257812 480.511719 719.144531 C 484.058594 721.160156 488.574219 720.941406 491.949219 718.617188 L 519.425781 700.277344 L 546.90625 718.617188 C 548.703125 719.84375 550.9375 720.503906 553.082031 720.503906 C 554.878906 720.503906 556.675781 720.066406 558.34375 719.144531 C 562.066406 717.257812 564.304688 713.441406 564.304688 709.273438 L 564.304688 675.578125 L 620.398438 675.578125 C 626.578125 675.578125 631.617188 670.53125 631.617188 664.347656 L 631.617188 57.859375 C 631.617188 51.671875 626.578125 46.625 620.398438 46.625 " fill-opacity="1" fill-rule="nonzero"/></g><path fill="#ffffff" d="M 194.070312 596.960938 L 171.632812 596.960938 C 165.453125 596.960938 160.414062 602.003906 160.414062 608.191406 C 160.414062 614.375 165.453125 619.421875 171.632812 619.421875 L 194.070312 619.421875 C 200.25 619.421875 205.292969 614.375 205.292969 608.191406 C 205.292969 602.003906 200.25 596.960938 194.070312 596.960938 " fill-opacity="1" fill-rule="nonzero"/><path fill="#ffffff" d="M 194.070312 125.246094 C 200.25 125.246094 205.292969 120.199219 205.292969 114.015625 L 205.292969 102.78125 C 205.292969 96.597656 200.25 91.550781 194.070312 91.550781 C 187.894531 91.550781 182.851562 96.597656 182.851562 102.78125 L 182.851562 114.015625 C 182.851562 120.199219 187.894531 125.246094 194.070312 125.246094 " fill-opacity="1" fill-rule="nonzero"/><path fill="#ffffff" d="M 194.070312 518.339844 C 200.25 518.339844 205.292969 513.296875 205.292969 507.109375 L 205.292969 495.878906 C 205.292969 489.691406 200.25 484.644531 194.070312 484.644531 C 187.894531 484.644531 182.851562 489.691406 182.851562 495.878906 L 182.851562 507.109375 C 182.851562 513.296875 187.894531 518.339844 194.070312 518.339844 " fill-opacity="1" fill-rule="nonzero"/><path fill="#ffffff" d="M 306.261719 221.851562 L 326.816406 271.253906 L 285.710938 271.253906 Z M 245.828125 337.761719 C 251.570312 340.175781 258.144531 337.457031 260.511719 331.75 L 276.332031 293.714844 L 336.195312 293.714844 L 352.015625 331.75 C 353.8125 336.050781 357.976562 338.640625 362.359375 338.640625 C 363.804688 338.640625 365.25 338.375 366.699219 337.761719 C 372.394531 335.394531 375.113281 328.8125 372.703125 323.066406 L 316.605469 188.289062 C 314.898438 184.121094 310.777344 181.402344 306.261719 181.402344 C 301.75 181.402344 297.628906 184.121094 295.921875 188.289062 L 239.824219 323.066406 C 237.414062 328.8125 240.132812 335.394531 245.828125 337.761719 " fill-opacity="1" fill-rule="nonzero"/><path fill="#ffffff" d="M 463.332031 203.863281 L 532.136719 203.863281 L 453.996094 321.179688 C 451.71875 324.644531 451.5 329.074219 453.425781 332.71875 C 455.398438 336.359375 459.210938 338.640625 463.332031 338.640625 L 553.082031 338.640625 C 559.261719 338.640625 564.304688 333.59375 564.304688 327.410156 C 564.304688 321.222656 559.261719 316.175781 553.082031 316.175781 L 484.277344 316.175781 L 562.417969 198.863281 C 564.699219 195.398438 564.917969 190.964844 562.988281 187.324219 C 561.015625 183.683594 557.203125 181.402344 553.082031 181.402344 L 463.332031 181.402344 C 457.152344 181.402344 452.113281 186.445312 452.113281 192.632812 C 452.113281 198.820312 457.152344 203.863281 463.332031 203.863281 " fill-opacity="1" fill-rule="nonzero"/><path fill="#ffffff" d="M 396.015625 271.253906 L 429.671875 271.253906 C 435.851562 271.253906 440.894531 266.207031 440.894531 260.019531 C 440.894531 253.835938 435.851562 248.789062 429.671875 248.789062 L 396.015625 248.789062 C 389.835938 248.789062 384.796875 253.835938 384.796875 260.019531 C 384.796875 266.207031 389.835938 271.253906 396.015625 271.253906 " fill-opacity="1" fill-rule="nonzero"/></svg>