<svg xmlns="http://www.w3.org/2000/svg" xmlns:xlink="http://www.w3.org/1999/xlink" width="1024" zoomAndPan="magnify" viewBox="0 0 768 767.999994" height="1024" preserveAspectRatio="xMidYMid meet" version="1.0"><path fill="#df2e24" d="M 652.800781 716.800781 L 716.800781 716.800781 L 716.800781 691.199219 L 652.800781 691.199219 L 652.800781 716.800781 " fill-opacity="1" fill-rule="nonzero"/><path fill="#df2e24" d="M 601.601562 716.800781 L 627.199219 716.800781 L 627.199219 691.199219 L 601.601562 691.199219 L 601.601562 716.800781 " fill-opacity="1" fill-rule="nonzero"/><path fill="#df2e24" d="M 51.199219 76.800781 L 76.800781 76.800781 L 76.800781 51.199219 L 51.199219 51.199219 L 51.199219 76.800781 " fill-opacity="1" fill-rule="nonzero"/><path fill="#df2e24" d="M 102.398438 76.800781 L 128 76.800781 L 128 51.199219 L 102.398438 51.199219 L 102.398438 76.800781 " fill-opacity="1" fill-rule="nonzero"/><path fill="#df2e24" d="M 153.601562 76.800781 L 179.199219 76.800781 L 179.199219 51.199219 L 153.601562 51.199219 L 153.601562 76.800781 " fill-opacity="1" fill-rule="nonzero"/><path fill="#df2e24" d="M 25.601562 742.398438 L 25.601562 128 L 742.398438 128 L 742.398438 742.398438 Z M 25.601562 25.601562 L 204.800781 25.601562 L 204.800781 102.398438 L 25.601562 102.398438 Z M 742.398438 102.398438 L 230.398438 102.398438 L 230.398438 25.601562 L 742.398438 25.601562 Z M 755.199219 0 L 12.800781 0 C 5.75 0 0 5.75 0 12.800781 L 0 755.199219 C 0 762.25 5.75 768 12.800781 768 L 755.199219 768 C 762.25 768 768 762.25 768 755.199219 L 768 12.800781 C 768 5.75 762.25 0 755.199219 0 " fill-opacity="1" fill-rule="nonzero"/><path fill="#df2e24" d="M 76.800781 576 L 76.800781 345.601562 L 691.199219 345.601562 L 691.199219 576 Z M 76.800781 243.199219 L 588.800781 243.199219 L 588.800781 320 L 76.800781 320 Z M 652.800781 299.699219 L 673.101562 320 L 632.5 320 Z M 634.699219 281.601562 L 614.398438 301.898438 L 614.398438 261.300781 Z M 652.800781 263.5 L 632.5 243.199219 L 673.101562 243.199219 Z M 670.898438 281.601562 L 691.199219 261.300781 L 691.199219 301.898438 Z M 51.199219 217.601562 L 51.199219 601.601562 L 716.800781 601.601562 L 716.800781 217.601562 L 51.199219 217.601562 " fill-opacity="1" fill-rule="nonzero"/><path fill="#df2e24" d="M 563.199219 499.199219 L 640 499.199219 L 640 524.800781 L 563.199219 524.800781 Z M 537.601562 550.398438 L 665.601562 550.398438 L 665.601562 473.601562 L 537.601562 473.601562 L 537.601562 550.398438 " fill-opacity="1" fill-rule="nonzero"/><path fill="#df2e24" d="M 332.800781 409.601562 L 499.199219 409.601562 L 499.199219 384 L 332.800781 384 L 332.800781 409.601562 " fill-opacity="1" fill-rule="nonzero"/><path fill="#df2e24" d="M 576 384 L 524.800781 384 L 524.800781 409.601562 L 576 409.601562 L 576 384 " fill-opacity="1" fill-rule="nonzero"/><path fill="#df2e24" d="M 151.898438 524.800781 L 230.398438 407.050781 L 308.898438 524.800781 Z M 241.050781 376.898438 C 236.300781 369.800781 224.5 369.800781 219.75 376.898438 L 117.351562 530.5 C 114.75 534.449219 114.5 539.5 116.699219 543.648438 C 118.949219 547.800781 123.300781 550.398438 128 550.398438 L 332.800781 550.398438 C 337.5 550.398438 341.851562 547.800781 344.101562 543.648438 C 346.300781 539.5 346.050781 534.449219 343.449219 530.5 L 241.050781 376.898438 " fill-opacity="1" fill-rule="nonzero"/><path fill="#df2e24" d="M 217.601562 499.199219 L 243.199219 499.199219 L 243.199219 473.601562 L 217.601562 473.601562 L 217.601562 499.199219 " fill-opacity="1" fill-rule="nonzero"/><path fill="#df2e24" d="M 102.398438 268.800781 L 102.398438 294.398438 L 153.601562 294.398438 L 153.601562 268.800781 L 102.398438 268.800781 " fill-opacity="1" fill-rule="nonzero"/></svg>